<svg width="96" height="60" viewBox="0 0 96 60" fill="none" xmlns="http://www.w3.org/2000/svg">
<path d="M58.2727 0L84.4897 45H32.0558L58.2727 0Z" fill="#7FC9F4"/>
<path d="M33 0L58.9808 45H7.01924L33 0Z" fill="#5E8AC4"/>
<path d="M15.3724 18.1598C15.011 17.5568 14.2682 17.0197 13.5734 17.0037C12.8785 16.9598 12.9943 17.3092 12.8446 17.7664L11.2752 22.4546L10.4047 25.196C10.213 25.795 9.92949 27.4542 9.45628 27.7217C9.11286 27.8934 8.47593 27.8715 8.09457 27.9354L6.84068 28.139C6.10791 28.2928 5.47297 28.6023 4.73421 28.6741C4.91391 28.2409 5.03571 27.7876 5.1575 27.3324C5.34918 26.7334 5.29727 26.1843 5.5149 25.5813C5.86232 24.581 6.12388 23.5587 6.5272 22.5784C6.74883 22.0053 6.94051 21.4043 7.13418 20.8333C7.31189 20.3741 7.31987 19.8749 7.44965 19.5015C7.60939 19.1541 7.90888 18.8207 8.01471 18.4793C8.17444 17.8263 7.49757 17.421 6.93252 17.2833C6.50524 17.1575 5.94817 17.1275 5.71057 17.5388C5.76249 17.5049 5.69061 17.9002 5.68462 17.8443C5.62073 18.046 5.53088 18.2476 5.43703 18.4233C4.47265 20.7834 3.79579 23.2293 3.06102 25.6792C2.85537 26.4199 2.62376 27.1607 2.4201 27.9274C2.31428 28.2688 2.21245 28.6402 2.07867 28.9836C1.90097 29.4448 1.72327 29.323 1.24407 29.5067C1.02844 29.5826 0.599157 29.7084 0.513301 29.966C0.31763 30.537 1.17818 30.8425 1.57152 30.9144C1.14225 33.0588 0.569207 35.1612 0.195834 37.3296C0.109979 37.8627 -0.103663 38.5196 0.0600623 39.0847C0.201824 39.6797 1.20015 40.5801 1.87302 40.3785C2.51794 40.1768 2.42409 38.9129 2.5359 38.3499C2.69364 37.3935 2.90529 36.4311 3.11693 35.4707C3.28465 34.6241 3.56218 33.7676 3.64604 32.901L3.76384 32.1164C3.86368 31.719 3.93555 31.0202 4.15319 30.6947C4.4447 30.2794 5.47896 30.0957 6.02205 29.9899C6.5891 29.8522 7.15814 29.7144 7.72919 29.6026C8.27427 29.5227 8.66362 29.2651 9.1508 29.1354C8.6117 30.7367 8.30422 32.4258 7.79308 34.0252C7.43368 35.1672 7.10024 36.3053 6.8267 37.4933C6.61506 38.4557 6.32554 39.48 6.22571 40.4583C6.1718 41.0434 6.4673 41.5405 7.02037 41.8201C8.29823 42.445 8.52185 41.3169 8.76145 40.3525C9.19672 38.5396 9.74181 36.7426 10.235 34.9536C10.4546 34.0731 10.5465 33.2904 10.8499 32.4298L11.5448 30.1497C11.7165 29.6345 11.9521 28.6442 12.3953 28.3527C12.6849 28.187 12.8426 28.1151 13.0582 28.0392C13.4576 27.8914 13.9288 27.9014 14.3581 27.7497C14.5198 27.7058 15.0329 27.574 15.0888 27.2905C15.1188 27.0389 14.9531 27.0269 14.7833 26.989C14.6975 26.969 14.6595 27.1387 14.6595 27.1387C14.5517 27.1766 14.4359 27.1327 14.3301 27.1707C13.787 27.2785 13.1181 27.2306 12.5691 27.2845C12.6849 26.4698 13.0562 25.7151 13.3657 24.9105L14.4319 22.179L14.967 20.8553C15.0988 20.4819 15.0948 20.1504 15.1747 19.839C15.3684 19.2659 15.8036 18.8926 15.3724 18.1598ZM4.24504 27.9174C3.92557 28.9177 3.63406 29.9141 3.3705 30.9084C3.66401 29.6345 3.93356 28.4186 4.28097 27.1407C4.62839 25.8609 5.28928 24.6629 5.72455 23.4309L4.24504 27.9174ZM8.56977 38.6554C8.50388 38.8271 8.434 38.9728 8.39606 39.1426C8.42202 38.8351 8.39207 38.5336 8.47393 38.2221C8.52385 37.8847 8.79939 37.5812 8.93516 37.2637C8.84331 37.7429 8.77543 38.1922 8.56977 38.6554ZM5.81041 23.1734L5.76848 23.3171C5.76249 23.2612 5.78844 23.2313 5.81041 23.1734Z" fill="black"/>
<path d="M33.7089 30.8378C33.5971 30.0552 33.0199 30.7936 32.8327 31.1004C32.4348 31.8233 32.0734 32.5799 31.712 33.3001C30.8877 34.855 30.0635 36.4125 29.091 37.9102C25.8486 42.7985 27.6454 34.4832 27.3645 34.582C27.2267 34.6314 27.1695 35.1775 27.1461 35.2867C27.3073 33.9736 27.6948 32.3875 28.2538 31.0718C28.571 30.2502 28.974 29.5611 28.1758 28.7733C26.7015 27.2938 25.3078 28.9059 24.5564 30.0942C24.0675 28.7733 23.1627 26.8414 21.4128 27.0104C20.6275 27.0858 20.2011 27.5226 19.7097 28.0374C19.4081 28.2819 19.1611 28.3417 18.901 28.6199C18.4668 28.9865 18.1938 29.5169 17.913 29.9772C16.8703 31.8779 16.2307 34.2102 16.0357 36.3189C15.9551 37.3356 15.9889 38.451 16.3711 39.4209C16.6051 39.9773 17.3696 41.1994 18.1808 41.0148C18.2172 41.0096 18.1418 40.981 18.0274 40.9212C18.5422 41.0148 19.1065 40.89 19.5069 40.5624C19.5511 40.63 19.1403 40.851 19.1403 40.851C19.5901 41.4204 22.1772 37.6034 22.3618 37.2602C22.7649 36.5737 23.0197 35.8639 23.3837 35.1437C23.6567 34.6132 24.0961 33.9216 24.4004 33.3522C24.39 33.607 24.4212 33.9268 24.4212 33.9268C23.9739 36.0251 23.5787 38.2976 24.637 40.3206C25.1336 41.3554 26.1945 42.2629 27.3879 41.9301C28.441 41.6492 29.234 40.5286 29.7983 39.6445C30.4951 38.6409 31.075 37.541 31.6496 36.4047C32.128 35.3855 32.57 34.3688 32.9315 33.2533C33.1525 32.5487 33.8597 31.6517 33.7089 30.8378ZM23.4851 32.0703C23.3291 32.3381 23.1757 32.6059 23.0561 32.8685L22.2552 34.2804C21.7352 35.2321 21.1736 36.1499 20.5755 37.0366C20.4195 37.3044 19.6681 38.4927 19.3015 38.4198C18.7502 38.2924 19.1429 36.3813 19.1871 36.0875C19.2443 35.5779 20.6093 29.8965 21.0982 29.7431C20.4533 29.7691 19.0024 36.4307 18.9478 36.9768C19.0649 35.1983 19.5433 33.4224 20.1023 31.7479C20.4169 30.8898 21.0982 28.6251 22.2786 28.5107C22.9209 28.4509 23.1913 29.7561 23.3395 30.1748C23.2953 30.1072 22.8741 29.1035 22.8429 29.1425C22.6791 29.3011 23.5813 31.1966 23.6073 31.4826C23.6359 31.7687 23.6359 31.7687 23.4851 32.0703ZM24.4732 33.7422C24.4732 33.7422 24.533 33.2325 24.559 33.1207L24.7124 32.8555L24.4732 33.7422ZM23.7269 31.5788L23.6905 31.2226C23.8127 31.3552 23.8231 31.4618 23.7269 31.5788Z" fill="black"/>
<path d="M50.1412 33.315C49.8522 32.3815 49.358 33.0693 49.1528 33.4508C48.6615 34.1791 47.8494 34.8987 47.2367 35.5981C46.4015 36.4795 45.5692 37.3986 44.6877 38.2453C44.2484 38.6875 43.708 39.3002 43.1329 39.5574C43.0548 39.6036 42.7832 39.6701 42.7861 39.7106L42.7427 39.673C42.7427 39.673 42.6416 39.043 42.6762 38.9996C42.6676 38.4794 42.7774 37.9477 42.8901 37.4564C42.9219 37.3726 43.2282 35.9825 43.1502 35.9911L42.9739 36.2483C43.1647 35.7484 43.4363 35.2426 43.6646 34.6993C43.0895 35.3553 42.7167 36.072 42.4797 36.9362C42.3583 37.3465 41.9913 38.1037 41.9682 38.7077C41.9624 37.8263 42.4479 36.6183 42.6762 36.0749C42.9942 35.205 43.3381 34.2109 43.7773 33.367C44.5923 31.8468 46.5315 30.3382 45.705 28.4135C44.9709 26.6014 43.497 26.7026 42.4508 27.8875C41.9451 28.4568 37.8008 34.942 37.9279 35.0085C37.9279 35.0085 38.2776 34.497 38.7314 33.7716L36.717 37.4101C36.6766 37.413 37.0494 36.6963 37.006 36.6616C36.9627 36.624 36.7112 36.9304 36.6852 37.0922C36.6852 36.2512 36.8818 35.39 36.8818 34.549C36.8904 34.2282 36.8297 33.9941 36.8789 33.6675C36.9858 33.1387 37.0927 32.5664 37.2892 32.1069C37.4164 31.7746 37.7083 31.4653 37.7574 31.1417C37.8644 30.6099 37.8066 30.4163 38.1216 29.9452C38.4019 29.5175 38.8383 29.0753 39.084 28.6909C39.662 27.6332 38.4453 27.0696 37.8008 27.0118C37.2777 26.98 36.7575 26.9916 36.3066 27.3153C35.8211 27.6823 35.9685 27.9482 35.8905 28.3961C35.824 28.9626 35.4888 29.636 35.3414 30.1706C35.1015 31.0347 34.905 31.896 34.7085 32.7572C34.4686 33.6213 34.2287 34.445 34.0698 35.3004C33.9368 35.994 34.038 36.6269 34.0206 37.2685C34.0091 37.991 33.9339 38.4765 34.353 39.0777C34.8154 39.7164 35.9858 40.6441 36.6159 39.7019L36.8066 40.0054C37.3384 38.4708 38.2458 37.0633 38.9423 35.5547C39.2371 34.8842 39.8296 34.3872 40.2804 33.6618C40.9047 32.6416 41.448 31.6272 42.1532 30.6388C42.0549 30.8469 41.6272 31.8093 41.6705 31.8468C41.7457 31.8006 41.7775 31.7168 41.8497 31.6301L41.3989 32.7948C41.3555 32.7572 41.5289 32.4595 41.448 32.4682C41.1648 32.4162 40.5434 34.7195 40.4827 34.9247C40.2891 35.8235 40.3267 36.6211 40.3353 37.5431C40.3353 37.9823 40.2978 38.4274 40.3411 38.8638C40.3845 39.3002 40.4654 39.7337 40.7053 40.1499C40.8469 40.3782 41.0376 40.6787 41.2544 40.8579C41.2948 40.855 41.7688 41.2105 41.5405 40.9128L41.8006 41.1267L41.6734 41.0602C41.6532 41.2596 43.1965 41.9128 43.4421 41.9706C44.5894 42.2191 45.6588 40.8348 46.3003 40.014C47.1529 38.8898 47.832 37.624 48.5979 36.4275C49.0141 35.7484 50.3926 34.2513 50.1412 33.315Z" fill="black"/>
<path d="M66.1412 33.315C65.8522 32.3815 65.358 33.0693 65.1528 33.4508C64.6615 34.1791 63.8494 34.8987 63.2367 35.5981C62.4015 36.4795 61.5692 37.3986 60.6877 38.2453C60.2484 38.6875 59.708 39.3002 59.1329 39.5574C59.0548 39.6036 58.7832 39.6701 58.7861 39.7106L58.7427 39.673C58.7427 39.673 58.6416 39.043 58.6762 38.9996C58.6676 38.4794 58.7774 37.9477 58.8901 37.4564C58.9219 37.3726 59.2282 35.9825 59.1502 35.9911L58.9739 36.2483C59.1647 35.7484 59.4363 35.2426 59.6646 34.6993C59.0895 35.3553 58.7167 36.072 58.4797 36.9362C58.3583 37.3465 57.9913 38.1037 57.9682 38.7077C57.9624 37.8263 58.4479 36.6183 58.6762 36.0749C58.9942 35.205 59.3381 34.2109 59.7773 33.367C60.5923 31.8468 62.5315 30.3382 61.705 28.4135C60.9709 26.6014 59.497 26.7026 58.4508 27.8875C57.9451 28.4568 53.8008 34.942 53.9279 35.0085C53.9279 35.0085 54.2776 34.497 54.7314 33.7716L52.717 37.4101C52.6766 37.413 53.0494 36.6963 53.006 36.6616C52.9627 36.624 52.7112 36.9304 52.6852 37.0922C52.6852 36.2512 52.8818 35.39 52.8818 34.549C52.8904 34.2282 52.8297 33.9941 52.8789 33.6675C52.9858 33.1387 53.0927 32.5664 53.2892 32.1069C53.4164 31.7746 53.7083 31.4653 53.7574 31.1417C53.8644 30.6099 53.8066 30.4163 54.1216 29.9452C54.4019 29.5175 54.8383 29.0753 55.084 28.6909C55.662 27.6332 54.4453 27.0696 53.8008 27.0118C53.2777 26.98 52.7575 26.9916 52.3066 27.3153C51.8211 27.6823 51.9685 27.9482 51.8905 28.3961C51.824 28.9626 51.4888 29.636 51.3414 30.1706C51.1015 31.0347 50.905 31.896 50.7085 32.7572C50.4686 33.6213 50.2287 34.445 50.0698 35.3004C49.9368 35.994 50.038 36.6269 50.0206 37.2685C50.0091 37.991 49.9339 38.4765 50.353 39.0777C50.8154 39.7164 51.9858 40.6441 52.6159 39.7019L52.8066 40.0054C53.3384 38.4708 54.2458 37.0633 54.9423 35.5547C55.2371 34.8842 55.8296 34.3872 56.2804 33.6618C56.9047 32.6416 57.448 31.6272 58.1532 30.6388C58.0549 30.8469 57.6272 31.8093 57.6705 31.8468C57.7457 31.8006 57.7775 31.7168 57.8497 31.6301L57.3989 32.7948C57.3555 32.7572 57.5289 32.4595 57.448 32.4682C57.1648 32.4162 56.5434 34.7195 56.4827 34.9247C56.2891 35.8235 56.3267 36.6211 56.3353 37.5431C56.3353 37.9823 56.2978 38.4274 56.3411 38.8638C56.3845 39.3002 56.4654 39.7337 56.7053 40.1499C56.8469 40.3782 57.0376 40.6787 57.2544 40.8579C57.2948 40.855 57.7688 41.2105 57.5405 40.9128L57.8006 41.1267L57.6734 41.0602C57.6532 41.2596 59.1965 41.9128 59.4421 41.9706C60.5894 42.2191 61.6588 40.8348 62.3003 40.014C63.1529 38.8898 63.832 37.624 64.5979 36.4275C65.0141 35.7484 66.3926 34.2513 66.1412 33.315Z" fill="black"/>
<path d="M78.8112 33.3805C78.8112 33.3805 78.8472 33.4096 78.8064 33.3514C78.6193 33.1498 78.4058 33.3245 78.1803 33.4074C77.2446 33.6761 76.2777 33.9807 75.306 34.2226C75.5531 33.0826 75.7955 31.8822 75.8098 30.7333C75.8314 30.2965 75.817 29.8307 75.6755 29.4096C75.5795 29.1386 75.4524 28.8721 75.2628 28.6392C75.2628 28.6392 74.819 28.2137 74.9437 28.4511L74.9077 28.4242L74.7518 28.189L74.8958 28.301C74.9101 28.1129 74.3151 27.824 74.3151 27.824C73.4107 27.1297 72.2302 26.6459 71.1698 27.3313C70.5172 27.7613 70.0206 28.4264 69.6223 29.0849C69.4808 29.3133 69.3392 29.5754 69.2337 29.8329C69.1281 30.0905 69.0129 30.9079 68.8258 31.049C68.6746 31.1857 68.1828 31.2618 67.9669 31.4051C67.6502 31.5574 67.3695 31.7388 67.1248 31.9471C66.5346 32.3727 66.0955 32.9393 65.6876 33.5037C64.9991 34.5585 64.716 35.7007 64.2577 36.7354C63.3964 38.7063 64.8047 41.0624 66.8393 41.7813C67.4942 42.0008 68.2308 42.059 68.8834 41.9381C69.5671 41.7835 70.1909 41.3871 70.6804 40.9706C71.1386 40.5876 72.1631 39.8754 72.307 39.3356C72.3046 39.3043 72.2422 39.3401 72.1511 39.4409L73.0004 38.3099C73.0364 38.339 72.8037 38.6705 72.8037 38.6705C73.0436 38.7399 74.0632 37.0042 74.1808 36.8698C74.3751 36.4801 74.5623 36.0591 74.7902 35.6671C74.9917 35.3693 74.9293 35.4051 75.246 35.2528C75.2148 35.2864 75.6323 35.1251 75.6971 35.1184C76.0522 35.0244 79.8837 34.4331 78.8112 33.3805ZM68.0508 40.6167L68.0173 40.6189C65.3206 41.2348 67.9261 35.5372 67.9597 35.2237L67.7917 35.5193C68.19 34.5518 68.5763 33.7724 68.7802 33.5059C69.3008 35.0109 71.141 35.4342 72.6093 35.4902C71.8368 37.3603 70.3157 40.0098 68.0508 40.6167ZM73.6626 31.5149C73.521 32.3973 73.4418 33.5529 73.0268 34.3659C72.8924 34.6884 72.9812 34.5876 72.6597 34.6772C72.4678 34.7578 72.0335 34.7332 71.832 34.722C71.4673 34.722 71.0306 34.6996 70.7451 34.5092C70.2461 34.18 70.2533 33.591 70.2653 33.0625C70.2773 32.5317 70.3901 32.0255 70.5388 31.5171C70.618 31.3223 71.1434 30.2831 71.0235 30.1062C70.9827 30.0166 70.6756 30.6034 70.6468 30.6369C70.8099 30.2808 70.9875 30.0793 71.1314 29.8486C71.0978 29.8508 71.1266 29.8172 71.1554 29.7545L71.1578 29.7837L71.1842 29.7187C71.1842 29.7187 71.1818 29.6896 71.213 29.6851C71.6448 29.0267 72.7221 27.5328 73.4778 28.4264C74.056 29.1834 73.7489 30.731 73.6626 31.5149ZM71.1842 29.7187L71.213 29.6851C71.2178 29.7165 71.1842 29.7187 71.1842 29.7187Z" fill="black"/>
<path d="M95.1412 33.315C94.8522 32.3815 94.358 33.0693 94.1528 33.4508C93.6615 34.1791 92.8494 34.8987 92.2367 35.5981C91.4015 36.4795 90.5692 37.3986 89.6877 38.2453C89.2484 38.6875 88.708 39.3002 88.1329 39.5574C88.0548 39.6036 87.7832 39.6701 87.7861 39.7106L87.7427 39.673C87.7427 39.673 87.6416 39.043 87.6762 38.9996C87.6676 38.4794 87.7774 37.9477 87.8901 37.4564C87.9219 37.3726 88.2282 35.9825 88.1502 35.9911L87.9739 36.2483C88.1647 35.7484 88.4363 35.2426 88.6646 34.6993C88.0895 35.3553 87.7167 36.072 87.4797 36.9362C87.3583 37.3465 86.9913 38.1037 86.9682 38.7077C86.9624 37.8263 87.4479 36.6183 87.6762 36.0749C87.9942 35.205 88.3381 34.2109 88.7773 33.367C89.5923 31.8468 91.5315 30.3382 90.705 28.4135C89.9709 26.6014 88.497 26.7026 87.4508 27.8875C86.9451 28.4568 82.8008 34.942 82.9279 35.0085C82.9279 35.0085 83.2776 34.497 83.7314 33.7716L81.717 37.4101C81.6766 37.413 82.0494 36.6963 82.006 36.6616C81.9627 36.624 81.7112 36.9304 81.6852 37.0922C81.6852 36.2512 81.8818 35.39 81.8818 34.549C81.8904 34.2282 81.8297 33.9941 81.8789 33.6675C81.9858 33.1387 82.0927 32.5664 82.2892 32.1069C82.4164 31.7746 82.7083 31.4653 82.7574 31.1417C82.8644 30.6099 82.8066 30.4163 83.1216 29.9452C83.4019 29.5175 83.8383 29.0753 84.084 28.6909C84.662 27.6332 83.4453 27.0696 82.8008 27.0118C82.2777 26.98 81.7575 26.9916 81.3066 27.3153C80.8211 27.6823 80.9685 27.9482 80.8905 28.3961C80.824 28.9626 80.4888 29.636 80.3414 30.1706C80.1015 31.0347 79.905 31.896 79.7085 32.7572C79.4686 33.6213 79.2287 34.445 79.0698 35.3004C78.9368 35.994 79.038 36.6269 79.0206 37.2685C79.0091 37.991 78.9339 38.4765 79.353 39.0777C79.8154 39.7164 80.9858 40.6441 81.6159 39.7019L81.8066 40.0054C82.3384 38.4708 83.2458 37.0633 83.9423 35.5547C84.2371 34.8842 84.8296 34.3872 85.2804 33.6618C85.9047 32.6416 86.448 31.6272 87.1532 30.6388C87.0549 30.8469 86.6272 31.8093 86.6705 31.8468C86.7457 31.8006 86.7775 31.7168 86.8497 31.6301L86.3989 32.7948C86.3555 32.7572 86.5289 32.4595 86.448 32.4682C86.1648 32.4162 85.5434 34.7195 85.4827 34.9247C85.2891 35.8235 85.3267 36.6211 85.3353 37.5431C85.3353 37.9823 85.2978 38.4274 85.3411 38.8638C85.3845 39.3002 85.4654 39.7337 85.7053 40.1499C85.8469 40.3782 86.0376 40.6787 86.2544 40.8579C86.2948 40.855 86.7688 41.2105 86.5405 40.9128L86.8006 41.1267L86.6734 41.0602C86.6532 41.2596 88.1965 41.9128 88.4421 41.9706C89.5894 42.2191 90.6588 40.8348 91.3003 40.014C92.1529 38.8898 92.832 37.624 93.5979 36.4275C94.0141 35.7484 95.3926 34.2513 95.1412 33.315Z" fill="black"/>
</svg>
