<?xml version="1.0" standalone="no"?>
<!DOCTYPE svg PUBLIC "-//W3C//DTD SVG 20010904//EN"
 "http://www.w3.org/TR/2001/REC-SVG-20010904/DTD/svg10.dtd">
<svg version="1.0" xmlns="http://www.w3.org/2000/svg"
 width="32.000000pt" height="32.000000pt" viewBox="0 0 32.000000 32.000000"
 preserveAspectRatio="xMidYMid meet">
<metadata>
Created by potrace 1.16, written by Peter Selinger 2001-2019
</metadata>
<g transform="translate(0.000000,32.000000) scale(0.006400,-0.006400)"
fill="#000000" stroke="none">
<path d="M2218 3123 c-14 -21 -114 -194 -223 -386 -109 -191 -200 -346 -202
-343 -2 2 12 51 31 109 20 58 36 112 36 121 0 17 -42 32 -59 22 -10 -6 -65
-168 -90 -263 -7 -24 -21 -47 -31 -53 -22 -12 -27 -36 -9 -42 8 -3 7 -25 -4
-79 -12 -59 -32 -104 -97 -217 -45 -79 -80 -145 -78 -148 3 -2 341 -3 751 -2
l747 3 -109 190 -109 190 21 29 c18 26 21 27 30 10 15 -29 49 -54 75 -54 42 0
80 29 123 95 24 36 48 65 55 65 6 0 14 -13 17 -29 6 -28 30 -46 48 -36 4 3 17
25 28 49 25 57 37 63 33 18 -3 -47 16 -84 50 -96 33 -12 47 -2 99 76 36 53 49
88 32 88 -4 0 -34 -26 -66 -57 l-59 -58 6 45 c4 24 16 59 27 77 24 38 22 81
-4 97 -16 9 -24 5 -52 -27 -18 -21 -45 -62 -59 -90 -22 -46 -25 -49 -25 -24
-1 15 8 47 19 69 25 53 25 65 -1 73 -29 10 -42 -6 -59 -77 -21 -82 -41 -89
-38 -14 2 47 -2 59 -22 81 -35 37 -77 31 -107 -15 -12 -19 -40 -54 -63 -76
-22 -23 -40 -47 -40 -53 0 -16 -91 -112 -100 -106 -12 8 5 80 28 117 26 42 27
61 6 82 -20 21 -47 7 -77 -39 -12 -19 -25 -35 -28 -35 -14 0 -19 33 -7 47 10
12 9 18 -7 29 -10 8 -24 14 -29 14 -10 0 -109 165 -128 211 -6 16 -246 439
-254 447 -1 2 -13 -13 -26 -35z"/>
</g>
</svg>
