<svg xmlns="http://www.w3.org/2000/svg" xmlns:xlink="http://www.w3.org/1999/xlink" width="500" zoomAndPan="magnify" viewBox="0 0 375 374.999991" height="500" preserveAspectRatio="xMidYMid meet" version="1.0"><defs><filter x="0%" y="0%" width="100%" height="100%" id="7f7984d93c"><feColorMatrix values="0 0 0 0 1 0 0 0 0 1 0 0 0 0 1 0 0 0 1 0" color-interpolation-filters="sRGB"/></filter><g/><mask id="c482143412"><g filter="url(#7f7984d93c)"><rect x="-37.5" width="450" fill="#000000" y="-37.499999" height="449.999989" fill-opacity="0.59"/></g></mask><clipPath id="b32b473e7f"><path d="M 0.6875 0.28125 L 113.1875 0.28125 L 113.1875 98.71875 L 0.6875 98.71875 Z M 0.6875 0.28125 " clip-rule="nonzero"/></clipPath><clipPath id="1fc1355b7c"><path d="M 56.9375 0.28125 L 113.1875 98.71875 L 0.6875 98.71875 Z M 56.9375 0.28125 " clip-rule="nonzero"/></clipPath><clipPath id="2cf23485b1"><rect x="0" width="114" y="0" height="99"/></clipPath><mask id="c39f0ddfee"><g filter="url(#7f7984d93c)"><rect x="-37.5" width="450" fill="#000000" y="-37.499999" height="449.999989" fill-opacity="0.59"/></g></mask><clipPath id="ee9aabd69d"><path d="M 0.8125 0.28125 L 113.3125 0.28125 L 113.3125 98.71875 L 0.8125 98.71875 Z M 0.8125 0.28125 " clip-rule="nonzero"/></clipPath><clipPath id="5f3b96bd3c"><path d="M 57.0625 0.28125 L 113.3125 98.71875 L 0.8125 98.71875 Z M 57.0625 0.28125 " clip-rule="nonzero"/></clipPath><clipPath id="1513742f75"><rect x="0" width="114" y="0" height="99"/></clipPath></defs><g mask="url(#c482143412)"><g transform="matrix(1, 0, 0, 1, 150, 138)"><g clip-path="url(#2cf23485b1)"><g clip-path="url(#b32b473e7f)"><g clip-path="url(#1fc1355b7c)"><path fill="#38b6ff" d="M 0.6875 0.28125 L 113.1875 0.28125 L 113.1875 98.71875 L 0.6875 98.71875 Z M 0.6875 0.28125 " fill-opacity="1" fill-rule="nonzero"/></g></g></g></g></g><g mask="url(#c39f0ddfee)"><g transform="matrix(1, 0, 0, 1, 111, 138)"><g clip-path="url(#1513742f75)"><g clip-path="url(#ee9aabd69d)"><g clip-path="url(#5f3b96bd3c)"><path fill="#004aad" d="M 0.8125 0.28125 L 113.3125 0.28125 L 113.3125 98.71875 L 0.8125 98.71875 Z M 0.8125 0.28125 " fill-opacity="1" fill-rule="nonzero"/></g></g></g></g></g><g fill="#000000" fill-opacity="1"><g transform="translate(123.617305, 218.242477)"><g><path d="M 30.132812 -39.65625 C 29.425781 -40.835938 27.972656 -41.886719 26.613281 -41.917969 C 25.253906 -42.003906 25.480469 -41.320312 25.1875 -40.425781 L 22.117188 -31.253906 L 20.414062 -25.890625 C 20.039062 -24.71875 19.484375 -21.472656 18.558594 -20.949219 C 17.886719 -20.613281 16.640625 -20.65625 15.894531 -20.53125 L 13.441406 -20.132812 C 12.007812 -19.832031 10.765625 -19.226562 9.320312 -19.085938 C 9.671875 -19.933594 9.910156 -20.820312 10.148438 -21.710938 C 10.523438 -22.882812 10.421875 -23.957031 10.847656 -25.136719 C 11.527344 -27.09375 12.039062 -29.09375 12.828125 -31.011719 C 13.261719 -32.132812 13.636719 -33.308594 14.015625 -34.425781 C 14.363281 -35.324219 14.378906 -36.300781 14.632812 -37.03125 C 14.945312 -37.710938 15.53125 -38.363281 15.738281 -39.03125 C 16.050781 -40.308594 14.726562 -41.101562 13.621094 -41.371094 C 12.785156 -41.617188 11.695312 -41.675781 11.230469 -40.871094 C 11.332031 -40.9375 11.191406 -40.164062 11.179688 -40.273438 C 11.054688 -39.878906 10.878906 -39.484375 10.695312 -39.140625 C 8.808594 -34.523438 7.484375 -29.738281 6.046875 -24.945312 C 5.644531 -23.496094 5.191406 -22.046875 4.792969 -20.546875 C 4.585938 -19.878906 4.386719 -19.152344 4.125 -18.480469 C 3.777344 -17.578125 3.429688 -17.816406 2.492188 -17.457031 C 2.070312 -17.308594 1.230469 -17.0625 1.0625 -16.558594 C 0.679688 -15.441406 2.363281 -14.84375 3.132812 -14.703125 C 2.292969 -10.507812 1.171875 -6.394531 0.441406 -2.152344 C 0.273438 -1.109375 -0.144531 0.175781 0.175781 1.28125 C 0.453125 2.445312 2.40625 4.207031 3.722656 3.8125 C 4.984375 3.417969 4.800781 0.945312 5.019531 -0.15625 C 5.328125 -2.027344 5.742188 -3.910156 6.15625 -5.789062 C 6.484375 -7.445312 7.027344 -9.121094 7.191406 -10.816406 L 7.421875 -12.351562 C 7.617188 -13.128906 7.757812 -14.496094 8.183594 -15.132812 C 8.753906 -15.945312 10.777344 -16.304688 11.839844 -16.511719 C 12.949219 -16.78125 14.0625 -17.050781 15.179688 -17.269531 C 16.246094 -17.425781 17.007812 -17.929688 17.960938 -18.183594 C 16.90625 -15.050781 16.304688 -11.746094 15.304688 -8.617188 C 14.601562 -6.382812 13.949219 -4.15625 13.414062 -1.832031 C 13 0.0507812 12.433594 2.054688 12.238281 3.96875 C 12.132812 5.113281 12.710938 6.085938 13.792969 6.632812 C 16.292969 7.855469 16.730469 5.648438 17.199219 3.761719 C 18.050781 0.214844 19.117188 -3.300781 20.082031 -6.800781 C 20.511719 -8.523438 20.691406 -10.054688 21.285156 -11.738281 L 22.644531 -16.199219 C 22.980469 -17.207031 23.441406 -19.144531 24.308594 -19.714844 C 24.875 -20.039062 25.183594 -20.179688 25.605469 -20.328125 C 26.386719 -20.617188 27.308594 -20.597656 28.148438 -20.894531 C 28.464844 -20.980469 29.46875 -21.238281 29.578125 -21.792969 C 29.636719 -22.285156 29.3125 -22.308594 28.980469 -22.382812 C 28.8125 -22.421875 28.738281 -22.089844 28.738281 -22.089844 C 28.527344 -22.015625 28.300781 -22.101562 28.09375 -22.027344 C 27.03125 -21.816406 25.722656 -21.910156 24.648438 -21.804688 C 24.875 -23.398438 25.601562 -24.875 26.207031 -26.449219 L 28.292969 -31.792969 L 29.339844 -34.382812 C 29.597656 -35.113281 29.589844 -35.761719 29.746094 -36.371094 C 30.125 -37.492188 30.976562 -38.222656 30.132812 -39.65625 Z M 8.363281 -20.566406 C 7.738281 -18.609375 7.167969 -16.660156 6.652344 -14.714844 C 7.226562 -17.207031 7.753906 -19.585938 8.433594 -22.085938 C 9.113281 -24.589844 10.40625 -26.933594 11.257812 -29.34375 Z M 16.824219 0.441406 C 16.695312 0.777344 16.558594 1.0625 16.484375 1.394531 C 16.535156 0.792969 16.476562 0.203125 16.636719 -0.40625 C 16.734375 -1.066406 17.273438 -1.660156 17.539062 -2.28125 C 17.359375 -1.34375 17.226562 -0.464844 16.824219 0.441406 Z M 11.425781 -29.847656 L 11.34375 -29.566406 C 11.332031 -29.675781 11.382812 -29.734375 11.425781 -29.847656 Z M 11.425781 -29.847656 "/></g></g></g><g fill="#000000" fill-opacity="1"><g transform="translate(151.940534, 215.520344)"><g><path d="M 26.0625 -15.550781 C 25.894531 -16.726562 25.027344 -15.617188 24.746094 -15.15625 C 24.148438 -14.070312 23.605469 -12.933594 23.0625 -11.851562 C 21.824219 -9.515625 20.585938 -7.175781 19.125 -4.925781 C 14.253906 2.417969 16.953125 -10.074219 16.53125 -9.925781 C 16.324219 -9.851562 16.238281 -9.03125 16.203125 -8.867188 C 16.445312 -10.839844 17.027344 -13.222656 17.867188 -15.199219 C 18.34375 -16.433594 18.949219 -17.46875 17.75 -18.652344 C 15.535156 -20.875 13.441406 -18.453125 12.3125 -16.667969 C 11.578125 -18.652344 10.21875 -21.554688 7.589844 -21.300781 C 6.410156 -21.1875 5.769531 -20.53125 5.03125 -19.757812 C 4.578125 -19.390625 4.207031 -19.300781 3.816406 -18.882812 C 3.164062 -18.332031 2.753906 -17.535156 2.332031 -16.84375 C 0.765625 -13.988281 -0.195312 -10.484375 -0.488281 -7.316406 C -0.609375 -5.789062 -0.558594 -4.113281 0.015625 -2.65625 C 0.367188 -1.820312 1.515625 0.015625 2.734375 -0.261719 C 2.789062 -0.269531 2.675781 -0.3125 2.503906 -0.402344 C 3.277344 -0.261719 4.125 -0.449219 4.726562 -0.941406 C 4.792969 -0.839844 4.175781 -0.507812 4.175781 -0.507812 C 4.851562 0.347656 8.738281 -5.386719 9.015625 -5.902344 C 9.621094 -6.933594 10.003906 -8 10.550781 -9.082031 C 10.960938 -9.878906 11.621094 -10.917969 12.078125 -11.773438 C 12.0625 -11.390625 12.109375 -10.910156 12.109375 -10.910156 C 11.4375 -7.757812 10.84375 -4.34375 12.433594 -1.304688 C 13.179688 0.25 14.773438 1.613281 16.566406 1.113281 C 18.148438 0.691406 19.339844 -0.992188 20.1875 -2.320312 C 21.234375 -3.828125 22.105469 -5.480469 22.96875 -7.1875 C 23.6875 -8.71875 24.351562 -10.246094 24.894531 -11.921875 C 25.226562 -12.980469 26.289062 -14.328125 26.0625 -15.550781 Z M 10.703125 -13.699219 C 10.46875 -13.296875 10.238281 -12.894531 10.058594 -12.5 L 8.855469 -10.378906 C 8.074219 -8.949219 7.230469 -7.570312 6.332031 -6.238281 C 6.097656 -5.835938 4.96875 -4.050781 4.417969 -4.160156 C 3.589844 -4.351562 4.179688 -7.222656 4.246094 -7.664062 C 4.332031 -8.429688 6.382812 -16.964844 7.117188 -17.195312 C 6.148438 -17.15625 3.96875 -7.148438 3.886719 -6.328125 C 4.0625 -9 4.78125 -11.667969 5.621094 -14.183594 C 6.09375 -15.472656 7.117188 -18.875 8.890625 -19.046875 C 9.855469 -19.136719 10.261719 -17.175781 10.484375 -16.546875 C 10.417969 -16.648438 9.785156 -18.15625 9.738281 -18.097656 C 9.492188 -17.859375 10.847656 -15.011719 10.886719 -14.582031 C 10.929688 -14.152344 10.929688 -14.152344 10.703125 -13.699219 Z M 12.1875 -11.1875 C 12.1875 -11.1875 12.277344 -11.953125 12.316406 -12.121094 L 12.546875 -12.519531 Z M 11.066406 -14.4375 L 11.011719 -14.972656 C 11.195312 -14.773438 11.210938 -14.613281 11.066406 -14.4375 Z M 11.066406 -14.4375 "/></g></g></g><g fill="#000000" fill-opacity="1"><g transform="translate(175.328655, 213.272522)"><g><path d="M 20.980469 -14.902344 C 20.589844 -16.164062 19.921875 -15.234375 19.644531 -14.71875 C 18.980469 -13.734375 17.882812 -12.761719 17.054688 -11.816406 C 15.925781 -10.625 14.800781 -9.382812 13.609375 -8.238281 C 13.015625 -7.640625 12.285156 -6.8125 11.507812 -6.464844 C 11.402344 -6.402344 11.035156 -6.3125 11.039062 -6.257812 L 10.980469 -6.308594 C 10.980469 -6.308594 10.84375 -7.160156 10.890625 -7.21875 C 10.878906 -7.921875 11.027344 -8.640625 11.179688 -9.304688 C 11.222656 -9.417969 11.636719 -11.296875 11.53125 -11.285156 L 11.292969 -10.9375 C 11.550781 -11.613281 11.917969 -12.296875 12.226562 -13.03125 C 11.449219 -12.144531 10.945312 -11.175781 10.625 -10.007812 C 10.460938 -9.453125 9.964844 -8.429688 9.933594 -7.613281 C 9.925781 -8.804688 10.582031 -10.4375 10.890625 -11.171875 C 11.320312 -12.347656 11.785156 -13.691406 12.378906 -14.832031 C 13.480469 -16.886719 16.101562 -18.925781 14.984375 -21.527344 C 13.992188 -23.976562 12 -23.839844 10.585938 -22.238281 C 9.902344 -21.46875 4.300781 -12.703125 4.472656 -12.613281 C 4.472656 -12.613281 4.945312 -13.304688 5.558594 -14.285156 L 2.835938 -9.367188 C 2.78125 -9.363281 3.285156 -10.332031 3.226562 -10.378906 C 3.167969 -10.429688 2.828125 -10.015625 2.792969 -9.796875 C 2.792969 -10.933594 3.058594 -12.097656 3.058594 -13.234375 C 3.070312 -13.667969 2.988281 -13.984375 3.054688 -14.425781 C 3.199219 -15.140625 3.34375 -15.914062 3.609375 -16.535156 C 3.78125 -16.984375 4.175781 -17.402344 4.242188 -17.839844 C 4.386719 -18.558594 4.308594 -18.820312 4.734375 -19.457031 C 5.113281 -20.035156 5.703125 -20.632812 6.035156 -21.152344 C 6.816406 -22.582031 5.171875 -23.34375 4.300781 -23.421875 C 3.59375 -23.464844 2.890625 -23.449219 2.28125 -23.011719 C 1.625 -22.515625 1.824219 -22.15625 1.71875 -21.550781 C 1.628906 -20.785156 1.175781 -19.875 0.976562 -19.152344 C 0.652344 -17.984375 0.386719 -16.820312 0.121094 -15.65625 C -0.203125 -14.488281 -0.527344 -13.375 -0.742188 -12.21875 C -0.921875 -11.28125 -0.785156 -10.425781 -0.808594 -9.558594 C -0.824219 -8.582031 -0.925781 -7.925781 -0.359375 -7.113281 C 0.265625 -6.25 1.847656 -4.996094 2.699219 -6.269531 L 2.957031 -5.859375 C 3.675781 -7.933594 4.902344 -9.835938 5.84375 -11.875 C 6.242188 -12.78125 7.042969 -13.453125 7.652344 -14.433594 C 8.496094 -15.8125 9.230469 -17.183594 10.183594 -18.519531 C 10.050781 -18.238281 9.472656 -16.9375 9.53125 -16.886719 C 9.632812 -16.949219 9.675781 -17.0625 9.773438 -17.179688 L 9.164062 -15.605469 C 9.105469 -15.65625 9.339844 -16.058594 9.230469 -16.046875 C 8.847656 -16.117188 8.007812 -13.003906 7.925781 -12.726562 C 7.664062 -11.511719 7.714844 -10.433594 7.726562 -9.1875 C 7.726562 -8.59375 7.675781 -7.992188 7.734375 -7.402344 C 7.792969 -6.8125 7.902344 -6.226562 8.226562 -5.664062 C 8.417969 -5.355469 8.675781 -4.949219 8.96875 -4.707031 C 9.023438 -4.710938 9.664062 -4.230469 9.355469 -4.632812 L 9.707031 -4.34375 L 9.535156 -4.433594 C 9.507812 -4.164062 11.59375 -3.28125 11.925781 -3.203125 C 13.476562 -2.867188 14.921875 -4.738281 15.789062 -5.847656 C 16.941406 -7.367188 17.859375 -9.078125 18.894531 -10.695312 C 19.457031 -11.613281 21.320312 -13.636719 20.980469 -14.902344 Z M 20.980469 -14.902344 "/></g></g></g><g fill="#000000" fill-opacity="1"><g transform="translate(193.620738, 211.514478)"><g><path d="M 20.980469 -14.902344 C 20.589844 -16.164062 19.921875 -15.234375 19.644531 -14.71875 C 18.980469 -13.734375 17.882812 -12.761719 17.054688 -11.816406 C 15.925781 -10.625 14.800781 -9.382812 13.609375 -8.238281 C 13.015625 -7.640625 12.285156 -6.8125 11.507812 -6.464844 C 11.402344 -6.402344 11.035156 -6.3125 11.039062 -6.257812 L 10.980469 -6.308594 C 10.980469 -6.308594 10.84375 -7.160156 10.890625 -7.21875 C 10.878906 -7.921875 11.027344 -8.640625 11.179688 -9.304688 C 11.222656 -9.417969 11.636719 -11.296875 11.53125 -11.285156 L 11.292969 -10.9375 C 11.550781 -11.613281 11.917969 -12.296875 12.226562 -13.03125 C 11.449219 -12.144531 10.945312 -11.175781 10.625 -10.007812 C 10.460938 -9.453125 9.964844 -8.429688 9.933594 -7.613281 C 9.925781 -8.804688 10.582031 -10.4375 10.890625 -11.171875 C 11.320312 -12.347656 11.785156 -13.691406 12.378906 -14.832031 C 13.480469 -16.886719 16.101562 -18.925781 14.984375 -21.527344 C 13.992188 -23.976562 12 -23.839844 10.585938 -22.238281 C 9.902344 -21.46875 4.300781 -12.703125 4.472656 -12.613281 C 4.472656 -12.613281 4.945312 -13.304688 5.558594 -14.285156 L 2.835938 -9.367188 C 2.78125 -9.363281 3.285156 -10.332031 3.226562 -10.378906 C 3.167969 -10.429688 2.828125 -10.015625 2.792969 -9.796875 C 2.792969 -10.933594 3.058594 -12.097656 3.058594 -13.234375 C 3.070312 -13.667969 2.988281 -13.984375 3.054688 -14.425781 C 3.199219 -15.140625 3.34375 -15.914062 3.609375 -16.535156 C 3.78125 -16.984375 4.175781 -17.402344 4.242188 -17.839844 C 4.386719 -18.558594 4.308594 -18.820312 4.734375 -19.457031 C 5.113281 -20.035156 5.703125 -20.632812 6.035156 -21.152344 C 6.816406 -22.582031 5.171875 -23.34375 4.300781 -23.421875 C 3.59375 -23.464844 2.890625 -23.449219 2.28125 -23.011719 C 1.625 -22.515625 1.824219 -22.15625 1.71875 -21.550781 C 1.628906 -20.785156 1.175781 -19.875 0.976562 -19.152344 C 0.652344 -17.984375 0.386719 -16.820312 0.121094 -15.65625 C -0.203125 -14.488281 -0.527344 -13.375 -0.742188 -12.21875 C -0.921875 -11.28125 -0.785156 -10.425781 -0.808594 -9.558594 C -0.824219 -8.582031 -0.925781 -7.925781 -0.359375 -7.113281 C 0.265625 -6.25 1.847656 -4.996094 2.699219 -6.269531 L 2.957031 -5.859375 C 3.675781 -7.933594 4.902344 -9.835938 5.84375 -11.875 C 6.242188 -12.78125 7.042969 -13.453125 7.652344 -14.433594 C 8.496094 -15.8125 9.230469 -17.183594 10.183594 -18.519531 C 10.050781 -18.238281 9.472656 -16.9375 9.53125 -16.886719 C 9.632812 -16.949219 9.675781 -17.0625 9.773438 -17.179688 L 9.164062 -15.605469 C 9.105469 -15.65625 9.339844 -16.058594 9.230469 -16.046875 C 8.847656 -16.117188 8.007812 -13.003906 7.925781 -12.726562 C 7.664062 -11.511719 7.714844 -10.433594 7.726562 -9.1875 C 7.726562 -8.59375 7.675781 -7.992188 7.734375 -7.402344 C 7.792969 -6.8125 7.902344 -6.226562 8.226562 -5.664062 C 8.417969 -5.355469 8.675781 -4.949219 8.96875 -4.707031 C 9.023438 -4.710938 9.664062 -4.230469 9.355469 -4.632812 L 9.707031 -4.34375 L 9.535156 -4.433594 C 9.507812 -4.164062 11.59375 -3.28125 11.925781 -3.203125 C 13.476562 -2.867188 14.921875 -4.738281 15.789062 -5.847656 C 16.941406 -7.367188 17.859375 -9.078125 18.894531 -10.695312 C 19.457031 -11.613281 21.320312 -13.636719 20.980469 -14.902344 Z M 20.980469 -14.902344 "/></g></g></g><g fill="#000000" fill-opacity="1"><g transform="translate(211.912822, 209.756435)"><g><path d="M 23.394531 -15.730469 C 23.394531 -15.730469 23.453125 -15.679688 23.386719 -15.78125 C 23.082031 -16.132812 22.734375 -15.828125 22.367188 -15.683594 C 20.84375 -15.214844 19.269531 -14.683594 17.6875 -14.261719 C 18.089844 -16.25 18.484375 -18.34375 18.507812 -20.347656 C 18.542969 -21.109375 18.519531 -21.921875 18.289062 -22.65625 C 18.132812 -23.128906 17.925781 -23.59375 17.617188 -24 C 17.617188 -24 16.894531 -24.742188 17.097656 -24.328125 L 17.039062 -24.375 L 16.785156 -24.785156 L 17.019531 -24.589844 C 17.042969 -24.917969 16.074219 -25.421875 16.074219 -25.421875 C 14.601562 -26.632812 12.679688 -27.476562 10.953125 -26.28125 C 9.890625 -25.53125 9.082031 -24.371094 8.433594 -23.222656 C 8.203125 -22.824219 7.972656 -22.367188 7.800781 -21.917969 C 7.628906 -21.46875 7.441406 -20.042969 7.136719 -19.796875 C 6.890625 -19.558594 6.089844 -19.425781 5.738281 -19.175781 C 5.222656 -18.910156 4.765625 -18.59375 4.367188 -18.230469 C 3.40625 -17.488281 2.691406 -16.5 2.027344 -15.515625 C 0.90625 -13.675781 0.445312 -11.683594 -0.300781 -9.878906 C -1.703125 -6.441406 0.589844 -2.332031 3.902344 -1.078125 C 4.96875 -0.695312 6.167969 -0.59375 7.230469 -0.804688 C 8.34375 -1.074219 9.359375 -1.765625 10.15625 -2.492188 C 10.902344 -3.160156 12.570312 -4.402344 12.804688 -5.34375 C 12.800781 -5.398438 12.699219 -5.335938 12.550781 -5.160156 L 13.933594 -7.132812 C 13.992188 -7.082031 13.613281 -6.503906 13.613281 -6.503906 C 14.003906 -6.382812 15.664062 -9.410156 15.855469 -9.644531 C 16.171875 -10.324219 16.476562 -11.058594 16.847656 -11.742188 C 17.175781 -12.261719 17.074219 -12.199219 17.589844 -12.464844 C 17.539062 -12.40625 18.21875 -12.6875 18.324219 -12.699219 C 18.902344 -12.863281 25.140625 -13.894531 23.394531 -15.730469 Z M 5.875 -3.109375 L 5.820312 -3.105469 C 1.429688 -2.03125 5.671875 -11.96875 5.726562 -12.515625 L 5.453125 -12 C 6.101562 -13.6875 6.730469 -15.046875 7.0625 -15.511719 C 7.910156 -12.886719 10.90625 -12.148438 13.296875 -12.050781 C 12.039062 -8.789062 9.5625 -4.167969 5.875 -3.109375 Z M 15.011719 -18.984375 C 14.78125 -17.445312 14.652344 -15.429688 13.976562 -14.011719 C 13.757812 -13.449219 13.902344 -13.625 13.378906 -13.46875 C 13.066406 -13.328125 12.359375 -13.371094 12.03125 -13.390625 C 11.4375 -13.390625 10.726562 -13.429688 10.261719 -13.761719 C 9.449219 -14.335938 9.460938 -15.363281 9.480469 -16.285156 C 9.5 -17.210938 9.683594 -18.09375 9.925781 -18.980469 C 10.054688 -19.320312 10.910156 -21.132812 10.714844 -21.441406 C 10.648438 -21.597656 10.148438 -20.574219 10.101562 -20.515625 C 10.367188 -21.136719 10.65625 -21.488281 10.890625 -21.890625 C 10.835938 -21.886719 10.882812 -21.945312 10.929688 -22.054688 L 10.933594 -22.003906 L 10.976562 -22.117188 C 10.976562 -22.117188 10.972656 -22.167969 11.023438 -22.175781 C 11.726562 -23.324219 13.480469 -25.929688 14.710938 -24.371094 C 15.652344 -23.050781 15.152344 -20.351562 15.011719 -18.984375 Z M 10.976562 -22.117188 L 11.023438 -22.175781 C 11.03125 -22.121094 10.976562 -22.117188 10.976562 -22.117188 Z M 10.976562 -22.117188 "/></g></g></g><g fill="#000000" fill-opacity="1"><g transform="translate(232.887034, 207.740612)"><g><path d="M 20.980469 -14.902344 C 20.589844 -16.164062 19.921875 -15.234375 19.644531 -14.71875 C 18.980469 -13.734375 17.882812 -12.761719 17.054688 -11.816406 C 15.925781 -10.625 14.800781 -9.382812 13.609375 -8.238281 C 13.015625 -7.640625 12.285156 -6.8125 11.507812 -6.464844 C 11.402344 -6.402344 11.035156 -6.3125 11.039062 -6.257812 L 10.980469 -6.308594 C 10.980469 -6.308594 10.84375 -7.160156 10.890625 -7.21875 C 10.878906 -7.921875 11.027344 -8.640625 11.179688 -9.304688 C 11.222656 -9.417969 11.636719 -11.296875 11.53125 -11.285156 L 11.292969 -10.9375 C 11.550781 -11.613281 11.917969 -12.296875 12.226562 -13.03125 C 11.449219 -12.144531 10.945312 -11.175781 10.625 -10.007812 C 10.460938 -9.453125 9.964844 -8.429688 9.933594 -7.613281 C 9.925781 -8.804688 10.582031 -10.4375 10.890625 -11.171875 C 11.320312 -12.347656 11.785156 -13.691406 12.378906 -14.832031 C 13.480469 -16.886719 16.101562 -18.925781 14.984375 -21.527344 C 13.992188 -23.976562 12 -23.839844 10.585938 -22.238281 C 9.902344 -21.46875 4.300781 -12.703125 4.472656 -12.613281 C 4.472656 -12.613281 4.945312 -13.304688 5.558594 -14.285156 L 2.835938 -9.367188 C 2.78125 -9.363281 3.285156 -10.332031 3.226562 -10.378906 C 3.167969 -10.429688 2.828125 -10.015625 2.792969 -9.796875 C 2.792969 -10.933594 3.058594 -12.097656 3.058594 -13.234375 C 3.070312 -13.667969 2.988281 -13.984375 3.054688 -14.425781 C 3.199219 -15.140625 3.34375 -15.914062 3.609375 -16.535156 C 3.78125 -16.984375 4.175781 -17.402344 4.242188 -17.839844 C 4.386719 -18.558594 4.308594 -18.820312 4.734375 -19.457031 C 5.113281 -20.035156 5.703125 -20.632812 6.035156 -21.152344 C 6.816406 -22.582031 5.171875 -23.34375 4.300781 -23.421875 C 3.59375 -23.464844 2.890625 -23.449219 2.28125 -23.011719 C 1.625 -22.515625 1.824219 -22.15625 1.71875 -21.550781 C 1.628906 -20.785156 1.175781 -19.875 0.976562 -19.152344 C 0.652344 -17.984375 0.386719 -16.820312 0.121094 -15.65625 C -0.203125 -14.488281 -0.527344 -13.375 -0.742188 -12.21875 C -0.921875 -11.28125 -0.785156 -10.425781 -0.808594 -9.558594 C -0.824219 -8.582031 -0.925781 -7.925781 -0.359375 -7.113281 C 0.265625 -6.25 1.847656 -4.996094 2.699219 -6.269531 L 2.957031 -5.859375 C 3.675781 -7.933594 4.902344 -9.835938 5.84375 -11.875 C 6.242188 -12.78125 7.042969 -13.453125 7.652344 -14.433594 C 8.496094 -15.8125 9.230469 -17.183594 10.183594 -18.519531 C 10.050781 -18.238281 9.472656 -16.9375 9.53125 -16.886719 C 9.632812 -16.949219 9.675781 -17.0625 9.773438 -17.179688 L 9.164062 -15.605469 C 9.105469 -15.65625 9.339844 -16.058594 9.230469 -16.046875 C 8.847656 -16.117188 8.007812 -13.003906 7.925781 -12.726562 C 7.664062 -11.511719 7.714844 -10.433594 7.726562 -9.1875 C 7.726562 -8.59375 7.675781 -7.992188 7.734375 -7.402344 C 7.792969 -6.8125 7.902344 -6.226562 8.226562 -5.664062 C 8.417969 -5.355469 8.675781 -4.949219 8.96875 -4.707031 C 9.023438 -4.710938 9.664062 -4.230469 9.355469 -4.632812 L 9.707031 -4.34375 L 9.535156 -4.433594 C 9.507812 -4.164062 11.59375 -3.28125 11.925781 -3.203125 C 13.476562 -2.867188 14.921875 -4.738281 15.789062 -5.847656 C 16.941406 -7.367188 17.859375 -9.078125 18.894531 -10.695312 C 19.457031 -11.613281 21.320312 -13.636719 20.980469 -14.902344 Z M 20.980469 -14.902344 "/></g></g></g></svg>