<svg xmlns="http://www.w3.org/2000/svg" xmlns:xlink="http://www.w3.org/1999/xlink" width="500" zoomAndPan="magnify" viewBox="0 0 375 374.999991" height="500" preserveAspectRatio="xMidYMid meet" version="1.0"><defs><filter x="0%" y="0%" width="100%" height="100%" id="8f53989762"><feColorMatrix values="0 0 0 0 1 0 0 0 0 1 0 0 0 0 1 0 0 0 1 0" color-interpolation-filters="sRGB"/></filter><g/><mask id="79d6820a87"><g filter="url(#8f53989762)"><rect x="-37.5" width="450" fill="#000000" y="-37.499999" height="449.999989" fill-opacity="0.59"/></g></mask><clipPath id="ff21f4cb42"><path d="M 0.53125 0.886719 L 269.359375 0.886719 L 269.359375 236.113281 L 0.53125 236.113281 Z M 0.53125 0.886719 " clip-rule="nonzero"/></clipPath><clipPath id="5a57fc968d"><path d="M 134.945312 0.886719 L 269.359375 236.113281 L 0.53125 236.113281 Z M 134.945312 0.886719 " clip-rule="nonzero"/></clipPath><clipPath id="2b39469e97"><rect x="0" width="270" y="0" height="237"/></clipPath><mask id="608021dfab"><g filter="url(#8f53989762)"><rect x="-37.5" width="450" fill="#000000" y="-37.499999" height="449.999989" fill-opacity="0.59"/></g></mask><clipPath id="90354a4fa5"><path d="M 0.640625 0.886719 L 269.46875 0.886719 L 269.46875 236.113281 L 0.640625 236.113281 Z M 0.640625 0.886719 " clip-rule="nonzero"/></clipPath><clipPath id="bbf3e43335"><path d="M 135.054688 0.886719 L 269.46875 236.113281 L 0.640625 236.113281 Z M 135.054688 0.886719 " clip-rule="nonzero"/></clipPath><clipPath id="2ad3290686"><rect x="0" width="270" y="0" height="237"/></clipPath></defs><g mask="url(#79d6820a87)"><g transform="matrix(1, 0, 0, 1, 99, 69)"><g clip-path="url(#2b39469e97)"><g clip-path="url(#ff21f4cb42)"><g clip-path="url(#5a57fc968d)"><path fill="#38b6ff" d="M 0.53125 0.886719 L 269.359375 0.886719 L 269.359375 236.113281 L 0.53125 236.113281 Z M 0.53125 0.886719 " fill-opacity="1" fill-rule="nonzero"/></g></g></g></g></g><g mask="url(#608021dfab)"><g transform="matrix(1, 0, 0, 1, 6, 69)"><g clip-path="url(#2ad3290686)"><g clip-path="url(#90354a4fa5)"><g clip-path="url(#bbf3e43335)"><path fill="#004aad" d="M 0.640625 0.886719 L 269.46875 0.886719 L 269.46875 236.113281 L 0.640625 236.113281 Z M 0.640625 0.886719 " fill-opacity="1" fill-rule="nonzero"/></g></g></g></g></g><g fill="#000000" fill-opacity="1"><g transform="translate(36.6385, 260.961847)"><g><path d="M 72.007812 -94.765625 C 70.316406 -97.578125 66.839844 -100.089844 63.597656 -100.164062 C 60.34375 -100.371094 60.886719 -98.742188 60.1875 -96.605469 L 52.851562 -74.679688 L 48.777344 -61.871094 C 47.882812 -59.066406 46.558594 -51.308594 44.351562 -50.058594 C 42.746094 -49.257812 39.761719 -49.359375 37.976562 -49.058594 L 32.117188 -48.109375 C 28.695312 -47.390625 25.726562 -45.941406 22.265625 -45.609375 C 23.109375 -47.628906 23.679688 -49.753906 24.25 -51.878906 C 25.148438 -54.683594 24.902344 -57.246094 25.921875 -60.0625 C 27.542969 -64.746094 28.765625 -69.519531 30.65625 -74.101562 C 31.691406 -76.789062 32.585938 -79.589844 33.492188 -82.265625 C 34.320312 -84.414062 34.355469 -86.746094 34.964844 -88.488281 C 35.714844 -90.113281 37.117188 -91.667969 37.609375 -93.269531 C 38.351562 -96.316406 35.195312 -98.210938 32.542969 -98.863281 C 30.546875 -99.449219 27.945312 -99.585938 26.835938 -97.667969 C 27.082031 -97.820312 26.742188 -95.976562 26.714844 -96.234375 C 26.417969 -95.296875 25.992188 -94.351562 25.554688 -93.535156 C 21.050781 -82.492188 17.878906 -71.0625 14.453125 -59.605469 C 13.492188 -56.148438 12.402344 -52.683594 11.453125 -49.097656 C 10.960938 -47.496094 10.480469 -45.769531 9.859375 -44.15625 C 9.027344 -42.007812 8.199219 -42.574219 5.953125 -41.710938 C 4.953125 -41.359375 2.9375 -40.777344 2.535156 -39.574219 C 1.628906 -36.898438 5.648438 -35.472656 7.492188 -35.132812 C 5.480469 -25.105469 2.800781 -15.277344 1.058594 -5.148438 C 0.652344 -2.648438 -0.347656 0.421875 0.425781 3.0625 C 1.078125 5.847656 5.753906 10.054688 8.894531 9.105469 C 11.910156 8.171875 11.472656 2.261719 11.996094 -0.375 C 12.730469 -4.847656 13.722656 -9.339844 14.710938 -13.832031 C 15.496094 -17.789062 16.792969 -21.796875 17.179688 -25.84375 L 17.734375 -29.519531 C 18.203125 -31.375 18.535156 -34.640625 19.550781 -36.164062 C 20.917969 -38.105469 25.753906 -38.957031 28.292969 -39.460938 C 30.945312 -40.105469 33.601562 -40.746094 36.269531 -41.261719 C 38.820312 -41.636719 40.644531 -42.847656 42.914062 -43.453125 C 40.398438 -35.96875 38.960938 -28.066406 36.574219 -20.59375 C 34.886719 -15.253906 33.328125 -9.929688 32.050781 -4.375 C 31.0625 0.121094 29.710938 4.90625 29.242188 9.480469 C 28.988281 12.222656 30.378906 14.546875 32.960938 15.851562 C 38.933594 18.769531 39.980469 13.492188 41.097656 8.988281 C 43.128906 0.511719 45.6875 -7.882812 47.988281 -16.253906 C 49.015625 -20.363281 49.4375 -24.027344 50.863281 -28.046875 L 54.109375 -38.707031 C 54.914062 -41.113281 56.019531 -45.75 58.089844 -47.109375 C 59.4375 -47.886719 60.179688 -48.21875 61.183594 -48.574219 C 63.054688 -49.269531 65.257812 -49.222656 67.261719 -49.933594 C 68.019531 -50.136719 70.417969 -50.753906 70.679688 -52.074219 C 70.824219 -53.25 70.042969 -53.304688 69.25 -53.488281 C 68.851562 -53.578125 68.667969 -52.785156 68.667969 -52.785156 C 68.167969 -52.609375 67.632812 -52.816406 67.128906 -52.636719 C 64.589844 -52.136719 61.464844 -52.351562 58.902344 -52.105469 C 59.441406 -55.910156 61.171875 -59.4375 62.621094 -63.199219 L 67.605469 -75.96875 L 70.113281 -82.164062 C 70.722656 -83.902344 70.703125 -85.453125 71.082031 -86.914062 C 71.988281 -89.585938 74.019531 -91.335938 72.007812 -94.765625 Z M 19.988281 -49.140625 C 18.496094 -44.46875 17.132812 -39.8125 15.898438 -35.164062 C 17.265625 -41.117188 18.53125 -46.800781 20.15625 -52.78125 C 21.78125 -58.757812 24.863281 -64.359375 26.898438 -70.117188 Z M 40.207031 1.050781 C 39.894531 1.859375 39.574219 2.535156 39.390625 3.328125 C 39.511719 1.894531 39.375 0.484375 39.753906 -0.972656 C 39.988281 -2.550781 41.277344 -3.96875 41.910156 -5.449219 C 41.480469 -3.210938 41.164062 -1.109375 40.207031 1.050781 Z M 27.300781 -71.320312 L 27.105469 -70.65625 C 27.082031 -70.910156 27.195312 -71.050781 27.300781 -71.320312 Z M 27.300781 -71.320312 "/></g></g></g><g fill="#000000" fill-opacity="1"><g transform="translate(104.319336, 254.457073)"><g><path d="M 62.277344 -37.164062 C 61.878906 -39.972656 59.804688 -37.316406 59.136719 -36.214844 C 57.703125 -33.621094 56.410156 -30.90625 55.105469 -28.324219 C 52.152344 -22.734375 49.195312 -17.148438 45.703125 -11.765625 C 34.0625 5.78125 40.507812 -24.074219 39.507812 -23.71875 C 39.007812 -23.542969 38.808594 -21.582031 38.714844 -21.1875 C 39.296875 -25.898438 40.691406 -31.597656 42.695312 -36.316406 C 43.835938 -39.273438 45.277344 -41.742188 42.417969 -44.570312 C 37.121094 -49.882812 32.117188 -44.097656 29.421875 -39.828125 C 27.671875 -44.574219 24.417969 -51.507812 18.136719 -50.90625 C 15.316406 -50.632812 13.785156 -49.0625 12.023438 -47.210938 C 10.941406 -46.332031 10.058594 -46.117188 9.117188 -45.121094 C 7.5625 -43.808594 6.582031 -41.902344 5.574219 -40.253906 C 1.832031 -33.425781 -0.46875 -25.054688 -1.164062 -17.484375 C -1.457031 -13.832031 -1.332031 -9.832031 0.0390625 -6.34375 C 0.875 -4.351562 3.625 0.0390625 6.539062 -0.628906 C 6.664062 -0.640625 6.398438 -0.746094 5.988281 -0.964844 C 7.832031 -0.625 9.859375 -1.078125 11.296875 -2.25 C 11.449219 -2.007812 9.972656 -1.21875 9.972656 -1.21875 C 11.59375 0.828125 20.886719 -12.875 21.542969 -14.101562 C 22.988281 -16.570312 23.90625 -19.117188 25.210938 -21.699219 C 26.191406 -23.605469 27.765625 -26.085938 28.863281 -28.132812 C 28.820312 -27.222656 28.933594 -26.066406 28.933594 -26.066406 C 27.328125 -18.539062 25.910156 -10.382812 29.714844 -3.113281 C 31.496094 0.59375 35.300781 3.851562 39.585938 2.664062 C 43.371094 1.652344 46.214844 -2.371094 48.242188 -5.542969 C 50.742188 -9.144531 52.820312 -13.097656 54.882812 -17.175781 C 56.601562 -20.835938 58.191406 -24.480469 59.488281 -28.488281 C 60.28125 -31.019531 62.816406 -34.242188 62.277344 -37.164062 Z M 25.574219 -32.730469 C 25.019531 -31.773438 24.464844 -30.8125 24.039062 -29.867188 L 21.160156 -24.804688 C 19.289062 -21.390625 17.277344 -18.089844 15.125 -14.910156 C 14.570312 -13.949219 11.878906 -9.679688 10.558594 -9.941406 C 8.574219 -10.398438 9.984375 -17.261719 10.140625 -18.3125 C 10.355469 -20.140625 15.25 -40.535156 17.007812 -41.09375 C 14.6875 -41 9.484375 -17.082031 9.285156 -15.125 C 9.707031 -21.503906 11.421875 -27.878906 13.429688 -33.894531 C 14.558594 -36.976562 17.011719 -45.105469 21.242188 -45.511719 C 23.550781 -45.730469 24.519531 -41.039062 25.050781 -39.539062 C 24.898438 -39.78125 23.386719 -43.386719 23.269531 -43.246094 C 22.679688 -42.671875 25.921875 -35.867188 26.019531 -34.84375 C 26.117188 -33.816406 26.117188 -33.816406 25.574219 -32.730469 Z M 29.125 -26.734375 C 29.125 -26.734375 29.339844 -28.566406 29.429688 -28.960938 L 29.984375 -29.921875 Z M 26.441406 -34.496094 L 26.316406 -35.777344 C 26.75 -35.300781 26.789062 -34.917969 26.441406 -34.496094 Z M 26.441406 -34.496094 "/></g></g></g><g fill="#000000" fill-opacity="1"><g transform="translate(160.207302, 249.085706)"><g><path d="M 50.136719 -35.609375 C 49.199219 -38.625 47.601562 -36.402344 46.945312 -35.171875 C 45.359375 -32.820312 42.738281 -30.5 40.753906 -28.238281 C 38.054688 -25.390625 35.363281 -22.417969 32.519531 -19.683594 C 31.105469 -18.253906 29.355469 -16.277344 27.496094 -15.449219 C 27.25 -15.296875 26.367188 -15.082031 26.378906 -14.953125 L 26.238281 -15.070312 C 26.238281 -15.070312 25.910156 -17.109375 26.027344 -17.25 C 25.996094 -18.929688 26.347656 -20.644531 26.714844 -22.230469 C 26.816406 -22.5 27.808594 -26.996094 27.550781 -26.96875 L 26.984375 -26.140625 C 27.605469 -27.75 28.484375 -29.386719 29.21875 -31.140625 C 27.355469 -29.019531 26.152344 -26.707031 25.386719 -23.914062 C 24.996094 -22.585938 23.808594 -20.140625 23.738281 -18.195312 C 23.722656 -21.039062 25.289062 -24.941406 26.027344 -26.695312 C 27.046875 -29.507812 28.164062 -32.722656 29.582031 -35.445312 C 32.214844 -40.355469 38.476562 -45.226562 35.808594 -51.4375 C 33.433594 -57.289062 28.679688 -56.964844 25.292969 -53.144531 C 23.660156 -51.304688 10.277344 -30.355469 10.6875 -30.136719 C 10.6875 -30.136719 11.820312 -31.796875 13.277344 -34.136719 L 6.773438 -22.386719 C 6.648438 -22.375 7.847656 -24.6875 7.707031 -24.804688 C 7.566406 -24.917969 6.753906 -23.9375 6.675781 -23.410156 C 6.675781 -26.128906 7.3125 -28.90625 7.308594 -31.621094 C 7.339844 -32.660156 7.136719 -33.417969 7.296875 -34.46875 C 7.648438 -36.183594 7.988281 -38.027344 8.621094 -39.511719 C 9.035156 -40.585938 9.976562 -41.582031 10.132812 -42.632812 C 10.484375 -44.347656 10.296875 -44.976562 11.316406 -46.496094 C 12.21875 -47.878906 13.632812 -49.308594 14.417969 -50.546875 C 16.289062 -53.960938 12.363281 -55.78125 10.273438 -55.96875 C 8.582031 -56.066406 6.90625 -56.035156 5.453125 -54.988281 C 3.886719 -53.804688 4.355469 -52.945312 4.105469 -51.496094 C 3.894531 -49.664062 2.808594 -47.492188 2.328125 -45.761719 C 1.5625 -42.972656 0.921875 -40.195312 0.285156 -37.414062 C -0.480469 -34.625 -1.261719 -31.964844 -1.769531 -29.195312 C -2.203125 -26.957031 -1.878906 -24.917969 -1.9375 -22.84375 C -1.972656 -20.511719 -2.207031 -18.933594 -0.855469 -16.996094 C 0.632812 -14.9375 4.414062 -11.9375 6.453125 -14.980469 L 7.0625 -14.003906 C 8.785156 -18.957031 11.714844 -23.507812 13.960938 -28.378906 C 14.917969 -30.542969 16.832031 -32.148438 18.289062 -34.488281 C 20.300781 -37.789062 22.058594 -41.0625 24.335938 -44.253906 C 24.015625 -43.578125 22.632812 -40.46875 22.773438 -40.351562 C 23.015625 -40.507812 23.121094 -40.773438 23.351562 -41.054688 L 21.902344 -37.292969 C 21.761719 -37.410156 22.316406 -38.367188 22.058594 -38.34375 C 21.136719 -38.515625 19.136719 -31.078125 18.941406 -30.410156 C 18.316406 -27.503906 18.433594 -24.929688 18.460938 -21.957031 C 18.46875 -20.535156 18.347656 -19.097656 18.480469 -17.6875 C 18.617188 -16.277344 18.882812 -14.882812 19.65625 -13.53125 C 20.117188 -12.800781 20.726562 -11.824219 21.429688 -11.246094 C 21.558594 -11.257812 23.089844 -10.109375 22.351562 -11.074219 L 23.195312 -10.378906 L 22.785156 -10.597656 C 22.71875 -9.945312 27.707031 -7.839844 28.503906 -7.65625 C 32.203125 -6.847656 35.652344 -11.320312 37.726562 -13.976562 C 40.484375 -17.605469 42.675781 -21.695312 45.152344 -25.554688 C 46.492188 -27.753906 50.945312 -32.582031 50.136719 -35.609375 Z M 50.136719 -35.609375 "/></g></g></g><g fill="#000000" fill-opacity="1"><g transform="translate(203.917838, 244.884707)"><g><path d="M 50.136719 -35.609375 C 49.199219 -38.625 47.601562 -36.402344 46.945312 -35.171875 C 45.359375 -32.820312 42.738281 -30.5 40.753906 -28.238281 C 38.054688 -25.390625 35.363281 -22.417969 32.519531 -19.683594 C 31.105469 -18.253906 29.355469 -16.277344 27.496094 -15.449219 C 27.25 -15.296875 26.367188 -15.082031 26.378906 -14.953125 L 26.238281 -15.070312 C 26.238281 -15.070312 25.910156 -17.109375 26.027344 -17.25 C 25.996094 -18.929688 26.347656 -20.644531 26.714844 -22.230469 C 26.816406 -22.5 27.808594 -26.996094 27.550781 -26.96875 L 26.984375 -26.140625 C 27.605469 -27.75 28.484375 -29.386719 29.21875 -31.140625 C 27.355469 -29.019531 26.152344 -26.707031 25.386719 -23.914062 C 24.996094 -22.585938 23.808594 -20.140625 23.738281 -18.195312 C 23.722656 -21.039062 25.289062 -24.941406 26.027344 -26.695312 C 27.046875 -29.507812 28.164062 -32.722656 29.582031 -35.445312 C 32.214844 -40.355469 38.476562 -45.226562 35.808594 -51.4375 C 33.433594 -57.289062 28.679688 -56.964844 25.292969 -53.144531 C 23.660156 -51.304688 10.277344 -30.355469 10.6875 -30.136719 C 10.6875 -30.136719 11.820312 -31.796875 13.277344 -34.136719 L 6.773438 -22.386719 C 6.648438 -22.375 7.847656 -24.6875 7.707031 -24.804688 C 7.566406 -24.917969 6.753906 -23.9375 6.675781 -23.410156 C 6.675781 -26.128906 7.3125 -28.90625 7.308594 -31.621094 C 7.339844 -32.660156 7.136719 -33.417969 7.296875 -34.46875 C 7.648438 -36.183594 7.988281 -38.027344 8.621094 -39.511719 C 9.035156 -40.585938 9.976562 -41.582031 10.132812 -42.632812 C 10.484375 -44.347656 10.296875 -44.976562 11.316406 -46.496094 C 12.21875 -47.878906 13.632812 -49.308594 14.417969 -50.546875 C 16.289062 -53.960938 12.363281 -55.78125 10.273438 -55.96875 C 8.582031 -56.066406 6.90625 -56.035156 5.453125 -54.988281 C 3.886719 -53.804688 4.355469 -52.945312 4.105469 -51.496094 C 3.894531 -49.664062 2.808594 -47.492188 2.328125 -45.761719 C 1.5625 -42.972656 0.921875 -40.195312 0.285156 -37.414062 C -0.480469 -34.625 -1.261719 -31.964844 -1.769531 -29.195312 C -2.203125 -26.957031 -1.878906 -24.917969 -1.9375 -22.84375 C -1.972656 -20.511719 -2.207031 -18.933594 -0.855469 -16.996094 C 0.632812 -14.9375 4.414062 -11.9375 6.453125 -14.980469 L 7.0625 -14.003906 C 8.785156 -18.957031 11.714844 -23.507812 13.960938 -28.378906 C 14.917969 -30.542969 16.832031 -32.148438 18.289062 -34.488281 C 20.300781 -37.789062 22.058594 -41.0625 24.335938 -44.253906 C 24.015625 -43.578125 22.632812 -40.46875 22.773438 -40.351562 C 23.015625 -40.507812 23.121094 -40.773438 23.351562 -41.054688 L 21.902344 -37.292969 C 21.761719 -37.410156 22.316406 -38.367188 22.058594 -38.34375 C 21.136719 -38.515625 19.136719 -31.078125 18.941406 -30.410156 C 18.316406 -27.503906 18.433594 -24.929688 18.460938 -21.957031 C 18.46875 -20.535156 18.347656 -19.097656 18.480469 -17.6875 C 18.617188 -16.277344 18.882812 -14.882812 19.65625 -13.53125 C 20.117188 -12.800781 20.726562 -11.824219 21.429688 -11.246094 C 21.558594 -11.257812 23.089844 -10.109375 22.351562 -11.074219 L 23.195312 -10.378906 L 22.785156 -10.597656 C 22.71875 -9.945312 27.707031 -7.839844 28.503906 -7.65625 C 32.203125 -6.847656 35.652344 -11.320312 37.726562 -13.976562 C 40.484375 -17.605469 42.675781 -21.695312 45.152344 -25.554688 C 46.492188 -27.753906 50.945312 -32.582031 50.136719 -35.609375 Z M 50.136719 -35.609375 "/></g></g></g><g fill="#000000" fill-opacity="1"><g transform="translate(247.628375, 240.683707)"><g><path d="M 55.898438 -37.585938 C 55.898438 -37.585938 56.039062 -37.46875 55.886719 -37.714844 C 55.160156 -38.550781 54.324219 -37.824219 53.449219 -37.480469 C 49.808594 -36.355469 46.046875 -35.085938 42.265625 -34.078125 C 43.230469 -38.828125 44.171875 -43.832031 44.230469 -48.625 C 44.3125 -50.445312 44.257812 -52.378906 43.699219 -54.136719 C 43.332031 -55.265625 42.835938 -56.382812 42.097656 -57.347656 C 42.097656 -57.347656 40.375 -59.121094 40.855469 -58.132812 L 40.71875 -58.25 L 40.105469 -59.226562 L 40.667969 -58.761719 C 40.722656 -59.542969 38.40625 -60.746094 38.40625 -60.746094 C 34.894531 -63.640625 30.300781 -65.65625 26.175781 -62.804688 C 23.632812 -61.007812 21.699219 -58.234375 20.152344 -55.496094 C 19.597656 -54.539062 19.054688 -53.449219 18.640625 -52.375 C 18.226562 -51.300781 17.777344 -47.894531 17.058594 -47.308594 C 16.464844 -46.734375 14.554688 -46.421875 13.707031 -45.820312 C 12.476562 -45.183594 11.382812 -44.433594 10.433594 -43.566406 C 8.144531 -41.792969 6.429688 -39.429688 4.84375 -37.078125 C 2.164062 -32.679688 1.070312 -27.917969 -0.714844 -23.605469 C -4.066406 -15.390625 1.40625 -5.570312 9.324219 -2.578125 C 11.871094 -1.660156 14.742188 -1.417969 17.28125 -1.917969 C 19.9375 -2.5625 22.363281 -4.21875 24.265625 -5.953125 C 26.054688 -7.550781 30.039062 -10.519531 30.597656 -12.773438 C 30.585938 -12.902344 30.339844 -12.75 29.992188 -12.328125 L 33.292969 -17.042969 C 33.433594 -16.925781 32.53125 -15.546875 32.53125 -15.546875 C 33.464844 -15.246094 37.425781 -22.484375 37.890625 -23.046875 C 38.640625 -24.671875 39.375 -26.425781 40.253906 -28.0625 C 41.039062 -29.300781 40.796875 -29.148438 42.03125 -29.785156 C 41.914062 -29.644531 43.53125 -30.316406 43.789062 -30.339844 C 45.171875 -30.734375 60.070312 -33.199219 55.898438 -37.585938 Z M 14.035156 -7.429688 L 13.90625 -7.417969 C 3.414062 -4.855469 13.550781 -28.601562 13.683594 -29.90625 L 13.027344 -28.679688 C 14.582031 -32.710938 16.078125 -35.957031 16.878906 -37.070312 C 18.902344 -30.796875 26.058594 -29.027344 31.773438 -28.800781 C 28.773438 -21.007812 22.847656 -9.957031 14.035156 -7.429688 Z M 35.875 -45.363281 C 35.324219 -41.6875 35.007812 -36.871094 33.394531 -33.484375 C 32.875 -32.140625 33.222656 -32.5625 31.96875 -32.179688 C 31.222656 -31.851562 29.53125 -31.945312 28.75 -32 C 27.328125 -31.992188 25.636719 -32.089844 24.523438 -32.890625 C 22.582031 -34.253906 22.605469 -36.714844 22.652344 -38.917969 C 22.699219 -41.121094 23.140625 -43.234375 23.714844 -45.359375 C 24.023438 -46.167969 26.066406 -50.503906 25.609375 -51.234375 C 25.441406 -51.605469 24.253906 -49.164062 24.136719 -49.023438 C 24.773438 -50.507812 25.46875 -51.351562 26.023438 -52.308594 C 25.894531 -52.296875 26.007812 -52.4375 26.113281 -52.707031 L 26.125 -52.578125 L 26.230469 -52.847656 C 26.230469 -52.847656 26.214844 -52.976562 26.34375 -52.988281 C 28.019531 -55.734375 32.210938 -61.960938 35.15625 -58.234375 C 37.398438 -55.085938 36.207031 -48.628906 35.875 -45.363281 Z M 26.230469 -52.847656 L 26.34375 -52.988281 C 26.355469 -52.859375 26.230469 -52.847656 26.230469 -52.847656 Z M 26.230469 -52.847656 "/></g></g></g><g fill="#000000" fill-opacity="1"><g transform="translate(297.748091, 235.866725)"><g><path d="M 50.136719 -35.609375 C 49.199219 -38.625 47.601562 -36.402344 46.945312 -35.171875 C 45.359375 -32.820312 42.738281 -30.5 40.753906 -28.238281 C 38.054688 -25.390625 35.363281 -22.417969 32.519531 -19.683594 C 31.105469 -18.253906 29.355469 -16.277344 27.496094 -15.449219 C 27.25 -15.296875 26.367188 -15.082031 26.378906 -14.953125 L 26.238281 -15.070312 C 26.238281 -15.070312 25.910156 -17.109375 26.027344 -17.25 C 25.996094 -18.929688 26.347656 -20.644531 26.714844 -22.230469 C 26.816406 -22.5 27.808594 -26.996094 27.550781 -26.96875 L 26.984375 -26.140625 C 27.605469 -27.75 28.484375 -29.386719 29.21875 -31.140625 C 27.355469 -29.019531 26.152344 -26.707031 25.386719 -23.914062 C 24.996094 -22.585938 23.808594 -20.140625 23.738281 -18.195312 C 23.722656 -21.039062 25.289062 -24.941406 26.027344 -26.695312 C 27.046875 -29.507812 28.164062 -32.722656 29.582031 -35.445312 C 32.214844 -40.355469 38.476562 -45.226562 35.808594 -51.4375 C 33.433594 -57.289062 28.679688 -56.964844 25.292969 -53.144531 C 23.660156 -51.304688 10.277344 -30.355469 10.6875 -30.136719 C 10.6875 -30.136719 11.820312 -31.796875 13.277344 -34.136719 L 6.773438 -22.386719 C 6.648438 -22.375 7.847656 -24.6875 7.707031 -24.804688 C 7.566406 -24.917969 6.753906 -23.9375 6.675781 -23.410156 C 6.675781 -26.128906 7.3125 -28.90625 7.308594 -31.621094 C 7.339844 -32.660156 7.136719 -33.417969 7.296875 -34.46875 C 7.648438 -36.183594 7.988281 -38.027344 8.621094 -39.511719 C 9.035156 -40.585938 9.976562 -41.582031 10.132812 -42.632812 C 10.484375 -44.347656 10.296875 -44.976562 11.316406 -46.496094 C 12.21875 -47.878906 13.632812 -49.308594 14.417969 -50.546875 C 16.289062 -53.960938 12.363281 -55.78125 10.273438 -55.96875 C 8.582031 -56.066406 6.90625 -56.035156 5.453125 -54.988281 C 3.886719 -53.804688 4.355469 -52.945312 4.105469 -51.496094 C 3.894531 -49.664062 2.808594 -47.492188 2.328125 -45.761719 C 1.5625 -42.972656 0.921875 -40.195312 0.285156 -37.414062 C -0.480469 -34.625 -1.261719 -31.964844 -1.769531 -29.195312 C -2.203125 -26.957031 -1.878906 -24.917969 -1.9375 -22.84375 C -1.972656 -20.511719 -2.207031 -18.933594 -0.855469 -16.996094 C 0.632812 -14.9375 4.414062 -11.9375 6.453125 -14.980469 L 7.0625 -14.003906 C 8.785156 -18.957031 11.714844 -23.507812 13.960938 -28.378906 C 14.917969 -30.542969 16.832031 -32.148438 18.289062 -34.488281 C 20.300781 -37.789062 22.058594 -41.0625 24.335938 -44.253906 C 24.015625 -43.578125 22.632812 -40.46875 22.773438 -40.351562 C 23.015625 -40.507812 23.121094 -40.773438 23.351562 -41.054688 L 21.902344 -37.292969 C 21.761719 -37.410156 22.316406 -38.367188 22.058594 -38.34375 C 21.136719 -38.515625 19.136719 -31.078125 18.941406 -30.410156 C 18.316406 -27.503906 18.433594 -24.929688 18.460938 -21.957031 C 18.46875 -20.535156 18.347656 -19.097656 18.480469 -17.6875 C 18.617188 -16.277344 18.882812 -14.882812 19.65625 -13.53125 C 20.117188 -12.800781 20.726562 -11.824219 21.429688 -11.246094 C 21.558594 -11.257812 23.089844 -10.109375 22.351562 -11.074219 L 23.195312 -10.378906 L 22.785156 -10.597656 C 22.71875 -9.945312 27.707031 -7.839844 28.503906 -7.65625 C 32.203125 -6.847656 35.652344 -11.320312 37.726562 -13.976562 C 40.484375 -17.605469 42.675781 -21.695312 45.152344 -25.554688 C 46.492188 -27.753906 50.945312 -32.582031 50.136719 -35.609375 Z M 50.136719 -35.609375 "/></g></g></g></svg>