<svg width="1489" height="111" viewBox="0 0 1489 111" fill="none" xmlns="http://www.w3.org/2000/svg">
<path fill-rule="evenodd" clip-rule="evenodd" d="M0 0L61.6539 4.17052C124.471 8.34104 247.779 16.6821 372.25 30.7977C496.721 45.2341 620.029 65.7659 744.5 69.9364C868.971 74.1069 992.279 61.5954 1116.75 57.7457C1241.22 53.5751 1364.53 57.7457 1427.35 59.6705L1489 61.5954V111H1427.35C1364.53 111 1241.22 111 1116.75 111C992.279 111 868.971 111 744.5 111C620.029 111 496.721 111 372.25 111C247.779 111 124.471 111 61.6539 111H0V0Z" fill="#3C7ACA"/>
<path fill-rule="evenodd" clip-rule="evenodd" d="M0 44.4L49.6333 53.28C99.2667 62.16 198.533 79.92 297.8 75.48C397.067 71.04 496.333 44.4 595.6 26.64C694.867 8.88 794.133 0 893.4 0C992.667 0 1091.93 8.88 1191.2 24.42C1290.47 39.96 1389.73 62.16 1439.37 73.26L1489 84.36V111H1439.37C1389.73 111 1290.47 111 1191.2 111C1091.93 111 992.667 111 893.4 111C794.133 111 694.867 111 595.6 111C496.333 111 397.067 111 297.8 111C198.533 111 99.2667 111 49.6333 111H0V44.4Z" fill="#224957" fill-opacity="0.8"/>
</svg>
